<?xml version="1.0" encoding="UTF-8"?>
<svg xmlns="http://www.w3.org/2000/svg" viewBox="0 0 635.13 270.85">
  <defs>
    <style>
      .cls-1, .cls-2, .cls-3 {
        fill: #fff;
      }

      .cls-2 {
        font-family: Medio, Medio;
        font-size: 196px;
      }

      .cls-4 {
        letter-spacing: 0em;
      }

      .cls-5 {
        letter-spacing: 0em;
      }

      .cls-6 {
        letter-spacing: 0em;
      }

      .cls-7 {
        letter-spacing: 0em;
      }

      .cls-8 {
        letter-spacing: -.02em;
      }

      .cls-9 {
        letter-spacing: -.01em;
      }

      .cls-3 {
        font-family: Fenix, Fenix;
        font-size: 32px;
      }
    </style>
  </defs>
  <g id="Brain_NoBound2">
    <g>
      <path class="cls-1" d="M246.72,71.4c6.87,5.41,8.57,13.51,7.53,21.61-4.51-2.85-9.72-4.68-15.17-5.82-1.4-3.68-3.36-6.86-7.35-8.13-.89-.29-1.27,1.12-.38,1.39h.01c2.24,1.82,3.76,3.92,4.75,6.19-4.58-.75-9.26-1.05-13.75-1.11-1.56-3.55-.61-6.51,2.84-8.65,6.44-3.99,14.73-2.28,21.52-5.48Z"/>
      <path class="cls-1" d="M241.85,59.9c.47,2.74,.6,5.77-.93,7.64-1.99,2.43-5.94,3.75-8.86,4.37-4.01,.87-6.6,.53-8.96-2.98-1.73-2.55-3.18-5.36-4.54-8.13-1.62-3.34-2.7-8.51-6.05-10.68-2.14-1.38-5.64-1.65-8.05-.46,.14-4.35-1.57-6.58-5.97-8.21-2.34-.86-8.46-.73-8.96-4.18-.79-5.38,5.12-5.96,8.7-7.21,.11-.03,.23-.04,.35-.06,.61-.08,.65-.72,.34-1.12-.13-.29-.42-.48-.79-.33-.12,.04-.22,.09-.34,.12-1.87,.3-3.86,.8-5.74,.82-3.08,.05-4.17-2.48-5.69-4.69-.13-.19-.32-.29-.51-.3h-.01c-.61-.47-1.46,.48-.91,1.14,.31,.37,.63,.73,.95,1.12,.49,.83,1.03,1.75,1.67,2.52v.03c.42,.81,.67,1.68,.65,2.61-.01,2.25-1.57,4.23-3.06,5.74-2.4,2.38-5.52,3.85-8.46,5.42-1.99,1.06-4.17,2.02-5.28,4.09-.18,.32-.32,.64-.45,.99-.85,2.18-1.02,4.85-1.46,7.05-.19,.91,1.21,1.3,1.4,.39,.39-1.95,.58-4.13,1.2-6,.11-.32,.24-.63,.37-.9,3.92-4.2,9.85-4.66,15.34-4.72,2.8-.03,5.65,.14,8.34,1,2.58,.83,4.76,1.82,4.95,5.22,.06,1.16-.31,2.58-.42,3.73-.5,5.17-.76,10.62-.12,15.77,.34,2.78,1.24,5.1,3.95,6.05,.1,.07,.21,.1,.31,.1h.01c.86,.25,1.24-1,.51-1.35-2.59-3.37-2.59-8.8-2.64-12.84-.05-2.31-.08-4.87,1.29-6.85,.44-1.51,1.52-2.04,3.28-1.59,1.75-.86,3.17-.54,4.26,1,.77,.78,1.36,1.8,1.92,2.74,.95,1.59,1.8,3.27,2.61,4.97s1.57,3.42,2.34,5.1c2.21,4.77,2.89,8.73,.31,13.54-.83,1.55-1.85,3.52-3.38,4.47-.29,.19-.61,.34-.95,.48h-18.79c-7.68-3.59-10.85-11.67-13.52-19.37-.04-.15-.13-.28-.25-.34-.29-.51-1.31-.38-1.36,.39-.15,2.23,.71,4.35,1.36,6.44,.66,2.06,1.37,4.11,2.12,6.13-4.05-.92-8.35-1.63-12.32-.04-4.62,1.83-5.23,5.2-6.59,9.45-.1,.99-.51,1.83-1.25,2.54-.48-.05-.94-.1-1.41-.16-1.84,.28-6.35-.55-7.05-2.45-1.24-3.44,3.23-4.69,5.23-6.42,3.98-3.41,6.13-8.31,8.14-13.03,.36-.84-.74-1.56-1.25-.74-4.56,7.45-10.42,14.95-19.63,16.24l-.17,.03c-.77,.1-1.03,1.16-.19,1.42l.19,.04c1.34,.4,3.08,.35,3.97,1.6,.48,.66,.62,2.62,.97,3.47l.09,.15c-2.07,1.85-4.21,3.62-6.41,5.31-1.33,1.01-2.67,1.99-4.04,2.94-1.63,1.13-3.28,2.21-4.97,3.24-.59,.38-2.07,1.57-2.84,1.69-1.56,.21-1.88-.99-2.28-2.36-.45-1.52-.53-3.16-.41-4.84,.23-3.07,1.15-6.26,1.73-8.99,.39-1.81,.59-3.82,1.29-5.55,.93-2.38,3.05-4.08,4.95-5.66,5.39-4.51,13.41-7.25,17-13.56,1.48-2.58,2.21-5.57,2.06-8.55-.2-4.17-2.05-8.11-.69-12.26l.13-.15c3.74-5.6,9.35-9.7,13.52-14.99,4.3-5.42,8.09-10.69,13.89-14.53,13.15-.79,25.22,5.07,32.86,15.64,2.29,5.21,2.47,11.25,4.25,16.64,1.73,5.28,3.49,11.29,8.01,14.78,.68,.52,1.36-.53,.87-1.12l-.14-.23c-5.05-5.86-6.98-14.33-6.73-22.07,10.57,3.41,14.73,13.52,17.14,23.65Z"/>
      <path class="cls-1" d="M239.61,123.25c0,.54-.02,1.08-.05,1.61-.2,3.98-1.19,7.86-3.08,11.05-.73-2.79-.35-5.69,.72-8.64,.48-1.32,.96-2.61,2.08-3.54,.1-.19,.22-.34,.33-.48Z"/>
      <path class="cls-1" d="M238.93,115.26c-.1-.11-.2-.21-.32-.32-2.25-1.97-5.46-2.03-8.26-1.71-2.37,.27-4.7,.94-7.08,1.04-1.23,.06-2.54,.02-3.73-.39-1.54-.54-4.4-2.64-1.67-3.88,.62-.29,.39-1.03-.1-1.26l-.03-.02c-.15-.08-.34-.14-.54-.1-1.96,.35-3.52,1.38-4.62,2.8v-9.54c.31-.02,.84-.08,1.7-.08h5.24c3.45,0,6.92,.01,10.2,1.27,5.46,2.12,8.1,6.89,9.21,12.19Z"/>
      <path class="cls-1" d="M233.51,116.64c4.96,1.1,3.33,4.84,2.07,7.28-1.62,3.12-3.83,5.94-3.61,9.69,.13,1.95,1.37,3.45,2.81,4.69-2.19,2.55-5.18,4.38-9.08,5.01-2.61,.42-5.4,.23-8.05,.23-1.41,0-3.34,.12-5.07,.13v-4.35c.33-.35,.7-.68,1.1-1.01,3.78-3.03,7.94-5.66,11.9-8.45,.71-.51,.12-1.66-.61-1.34-.09,0-.17,.03-.28,.09-2.46,1.44-4.93,2.88-7.42,4.31-1.57,.92-3.07,1.9-4.69,2.57v-18.89c1.42-1.09,4.18,.39,5.58,.62,2.03,.34,4.17,.34,6.23,.26,2.16-.07,4.3-.4,6.45-.67,.81-.08,1.84-.34,2.67-.17Z"/>
      <path class="cls-1" d="M216.37,159.81c1.11-.01,2.23-.01,3.35-.01-.19,1-.4,2.01-.63,3.01-1.86,1.81-4.12,3.31-6.51,4.66v-5.19c1.29-.77,2.56-1.6,3.79-2.47Z"/>
      <path class="cls-1" d="M218.52,165.26c-.7,2.81-1.52,5.57-2.54,8.25-1.12,.61-2.26,1.18-3.4,1.75v-6.13c2.1-1.15,4.13-2.39,5.94-3.87Z"/>
      <path class="cls-1" d="M212.58,176.9c.86-.42,1.72-.84,2.57-1.28-.76,1.82-1.62,3.6-2.57,5.3v-4.02Z"/>
      <path class="cls-1" d="M213.8,159.82c-.4,.26-.81,.51-1.22,.76v-.76h1.22Z"/>
      <path class="cls-1" d="M210.47,159.8c-.76,.32-1.44,.02,0,0h0Z"/>
      <path class="cls-1" d="M188.31,85.47c-1.2-.01-2.41-.01-3.61-.04-5.38-.1-13.04-2.09-14.56,4.86-1.11,5.01,.88,9.11,5.83,9.69l-.29,1.44h-.19c-2.38,.21-4.73,.27-7.12,.21,.85-5.65-2.74-11.36,2.49-16.02,2.48-2.21,6.09-3.18,9.34-3.21,3.34-.03,5.92,1.11,8.11,3.07Z"/>
      <path class="cls-1" d="M185.73,100.32c.33,2.9-.01,6.06-.01,8.96v5.26c-5.09,.96-10.13,2.24-14.86,4.41-5.33,2.46-9.79,6.17-14.59,9.47-3.32,2.28-17.73,10.77-17.97,2.31-.07-2.99,1.63-6.77,3.87-10.14l.13-.19c1.77-2.48,3.82-4.75,6.09-6.82,.69-.66-.32-1.59-1.04-1.04-2.13,1.67-4.24,4.04-6,6.69l-.08,.13c-1.44,1.96-2.69,4.06-3.75,6.27-1.24,2.54-1.96,5.39-3.43,7.8-1.96,3.29-5.27,5.49-8.55,7.3-5.6,3.06-13.35,5.31-19.62,2.94-8.28-3.13-2.04-12.18-2.02-18.34v-.05c.06-.36,.12-.71,.16-1.07,.11-.84-1.11-.92-1.39-.19-.17,.1-.28,.29-.25,.57,.02,.23,.03,.48,.03,.71v.03c-.65,4.09-2.06,8.05-6.83,8.36-2.86,.21-5.79,0-8.65,.05-5.38,.07-10.65,.52-15.75,2.29-.29,.05-.58,.11-.87,.16-.83,.18-.58,1.34,.16,1.43h.01c.13,.07,.31,.08,.51,.01,.19-.07,.36-.13,.55-.19,3.91-.72,7.85-1.19,11.81-1.29,3.49-.1,7.99-.49,11.28,.86,3.31,1.38,3.86,5.1,6.53,7.23,1.85,1.48,4.16,2.3,6.48,2.66,2.99,.46,6.03,.12,9.02-.22,1.83-.2,3.42-.45,5.22,.03,1.45,.39,2.7,1.18,4.12,1.66,4.46,1.46,9.24,.2,12.7-2.85l.28-.25c.5-.46-.02-1.48-.72-1.2-.08,.04-.2,.08-.34,.13-2.46,.91-11.66,3.86-10.33-.96,.24-.89,3.73-2.67,4.53-3.26,1.13-.81,2.88-2.68,4.34-2.7,.06,0,1.89,.96,2.08,1.02,1.08,.33,2.3,.41,3.4,.46,2.72,.14,5.36-.21,7.97-.87,.09,2.12,.16,4.22,.24,6.34,.1,2.83,.64,6.45-1.22,8.89-2.68,3.53-9.88,1.57-13.57,1.39-6.32-.27-14.99-.87-18.68,5.41-2.94-.31-5.54-2.18-8.38-2.92-2.36-.63-4.84-.85-7.27-.66-3.11,.25-6.13,1.19-9.24,1.5-3.21,.3-6.43-.06-9.58-.7-5.89-1.22-11.81-2.96-17.42-5.13-6.22-2.39-12.13-6.24-13.73-13.04,.2-3.07,1.16-6.31,3.82-7.48,.16,2.39,1.29,4.35,3.31,5.79,.1,.06,.21,.13,.31,.21,.58,.39,1.44-.41,.99-.99-.08-.1-.15-.19-.22-.29-1.06-1.48-1.83-3.29-1.24-5.19,.51-1.61,3.26-3.19,4.45-4.11,1.96-1.51,3.91-3.2,6.07-4.39,5.04-2.74,11.71-3.6,17.23-5.1,.38-.1,.75-.2,1.13-.3,4.98-1.35,9.94-2.79,14.95-4,6.04-1.43,12.36-1.96,17.74,1.59h.01c.47,5.3-2.67,9.3-6.43,12.58l-.28,.25c-.57,.47,.04,1.39,.71,1.2,.12-.03,.23-.07,.35-.11,2.99-.99,6.04-4.32,7.86-6.67,1.68-2.18,3.69-5.77,2.98-8.7,2.7-.24,5.05-1.73,7.39-3.1,3.24-1.89,6.35-3.99,9.23-6.4,2.32-1.96,4.43-4.25,6.85-6.09,.81-.62,1.66-1.18,2.55-1.67,4.63-2.52,15.28-1.72,13.94,5.65-2.22,.07-4.43,.12-6.65,.09h-.37c-.68,0-1.04,1.04-.36,1.35,.12,.06,.23,.1,.35,.14,5.87,2.54,11.91,1.27,17.91-.33l.2-.06c.76-.2,.64-1.5-.2-1.42l.29-1.44c.27,.03,.55,.05,.84,.06,2.81,.1,5.88,.53,8.67,.31,.1-.01,.18-.02,.25-.03Z"/>
      <path class="cls-1" d="M185.72,193.58v3.03c0,.79-.02,1.59-.05,2.4-11.14,1.26-23.73-1.45-32.07-7.25,10.53,2.79,21.36,3.03,32.12,1.82Z"/>
      <path class="cls-1" d="M185.72,186.37v5.75c-12.14,1.37-24.36,.89-36.17-3.09l-.03-.03c12.17,.95,24.38,.04,36.2-2.63Z"/>
      <path class="cls-1" d="M185.72,181.76v3.11c-12.17,2.78-24.77,3.67-37.32,2.57-.28-.37-.55-.74-.8-1.11,6.16,.39,12.31-.03,18.44-.88,6.48-.9,13.39-1.69,19.68-3.69Z"/>
      <path class="cls-1" d="M185.72,173.43v6.81c-.13,.04-.26,.09-.39,.13-6.25,1.95-13.12,2.77-19.58,3.66-6.41,.87-12.8,1.28-19.24,.77h0c-.63-.89-1.27-1.79-1.88-2.69,7.05-.28,13.99-1.31,20.84-2.84,6.85-1.54,13.61-3.57,20.26-5.84Z"/>
      <path class="cls-1" d="M185.72,167.16v4.74c-.55,.18-1.11,.37-1.66,.55-13.1,4.4-26.57,7.83-40.44,8.24-.29-.39-.57-.8-.83-1.19,15.09-1.3,29.07-6.58,42.93-12.34Z"/>
      <path class="cls-1" d="M185.72,159.37v6.26c-14.16,5.9-28.45,11.34-43.9,12.49-.39-.55-.77-1.09-1.13-1.64,8.55-.16,17.62-4.3,25.37-7.57,6.51-2.76,12.66-6.21,18.96-9.36,.23-.06,.47-.12,.7-.18Z"/>
      <path class="cls-1" d="M185.72,141.05v10.81c-.94,.24-1.87,.48-2.8,.75-4,1.12-7.92,2.4-11.81,3.79-2.37,.32-4.78,.35-7.18,.25-5.97-.24-10.4-4.85-10.31-10.94,.11-9.44,6.1-17.55,14.73-20.98,.94,5.51,.33,10.96-1.81,16.11v.02c-.07,.1-.11,.19-.11,.27-.31,.85,.9,1.54,1.26,.7l.09-.2v-.02l.03-.03c2.85-3.99,3.47-8.68,4.95-13.26,2.06-6.38,6.77-9.66,12.96-10.94v16.18c-.33,.75-.62,1.51-.73,2.36-.17,1.35-.3,2.55-.56,3.66-.45,1.86-1.25,3.46-3.17,5.04-.71,.59,.32,1.63,1.03,1.03,1.52-1.25,2.71-2.78,3.43-4.6Z"/>
      <path class="cls-1" d="M173.02,10.13c1.02,3.95,.63,8.14-1.46,11.77-2.11,3.66-5.7,6.01-8.97,8.52-5.52,4.22-8.35,8.59-9.18,15.59-.51,4.19,.12,8.28-.03,12.45-.19,5.94-3.86,8.41-8.6,11.08-.77,.44-1.54,.88-2.31,1.34-5.42,3.17-10.67,6.96-11.81,13.6v.19s-.08,.17-.08,.17c-.88,3.88-1.14,7.82-1.5,11.77-.2,2.29-.45,4.6-.96,6.85-.74,3.26-3.78,4.48-6.78,4.86-12.1,1.49-14.99-12.83-15.5-22.05-.02-.14-.05-.27-.1-.35l-.02-.03c-.26-.54-1.19-.66-1.34,.08-.87,4.35,.28,8.27,1.34,12.48,1.03,4.1,1.02,7.37-3.05,9.82-2.61,1.57-5.58,2.6-8.4,3.71-2.62,1.01-5.26,2.01-7.94,2.83-2.68,.83-5.41,1.5-8.2,1.87-3.83,.51-8.09,1.22-9.98-3.19-.32-.76-.58-1.56-.81-2.38-.25-1.63-.64-3.21-1.12-4.67-.14-.68-.29-1.35-.46-1.99-.13-.49-.63-.61-.99-.45-.42,.03-.8,.37-.61,.87,.25,.63,.48,1.31,.71,2.01,.34,1.45,.67,2.93,1.03,4.39,.47,2.87,.41,5.84-.69,8.23-2.37,5.13-8.37,7.31-13.7,7.4-7.34,.13-7.5-6.25-9.13-11.7-.78-2.63-1.86-5.02-3.61-7,.94,.1,1.9,.15,2.87,.1,1.41-.06,3.14-.61,4.54-.46,2.84,.29,3.31,2.25,4.5,4.38,1.02,1.85,2.18,3.61,3.38,5.34,.5,.69,1.6,.14,1.37-.56h0c.01-.14-.03-.29-.12-.43-3.32-5.3-.77-9.81,2.14-14.46,1.97-3.16,2.86-6.23,3.99-9.74,.7-2.14,1.56-4.32,2.72-6.25,1.41-2.32,2.29-3.18,5.14-2.86,2.52,.27,2.88,.67,3.94,2.76,2.41,4.75,2.76,10.38,1.12,15.4-.26,.75,.69,1.14,1.17,.72,.12-.06,.22-.16,.29-.3,2.53-5.26,3.27-10.61,2.49-16.37-.58-4.22-1.45-8.49,.9-12.38,2.02-3.36,5.56-5.39,9.24-6.47,13.73-3.99,30.77,2.11,33.98,17.16,.13,.61,.78,.64,1.16,.32h.03c.23-.09,.4-.3,.38-.65-.61-6.77-3.75-12.57-7.91-17.84,.6-7.4,5.26-13.34,12.31-15.65h.01c2.12,2.01,4,4.22,5.81,6.51,2.49,3.11,5.28,5.88,5.57,10.04h0c-.32,.57,.18,1.09,.66,1.09,.19,0,.4-.07,.54-.28,.15-.1,.23-.26,.26-.46,4.2-8.11-6.81-13.93-8.96-20.79-3.97-12.68,8.34-21.33,18.99-24.32h.01c.9,.25,1.28-1.15,.38-1.41l-.15-.03-.21-.05h-.03c-1.53-.37-3-.24-4.56-.47-4.46-.62-4.15-4.92-2.46-8.06,1.89-3.5,5.16-5.71,8.64-7.41,7.18-.61,14.24,1.37,20.12,5.81Z"/>
      <path class="cls-1" d="M177.19,161.98c-3.27,1.7-6.56,3.37-9.95,4.85-4.18,1.83-8.45,3.47-12.78,4.92-3.01,1.02-6.09,2.11-9.24,2.74,10.6-4.3,21.12-8.88,31.97-12.51Z"/>
      <path class="cls-1" d="M153.46,155.73c1.75,2.38,4.25,3.82,7,4.74-5.6,2.23-11.17,4.59-16.75,6.84-3.11,1.26-6.23,2.51-9.37,3.7-3.58,1.37-7.18,2.66-10.82,3.82-3.07,.99-7.01,2.55-10.88,3.22-3.83,.65-7.59,.45-10.41-1.97-.37-.32-.77-.55-1.16-.68h-.01c-.58-.55-1.4-.88-2.44-.84-11.42,.45-22.36-1.27-33.08-5.19-2.79-3.95-5.17-8.23-7.35-12.65,7.81,2.09,15.8,3.38,23.9,3.83,4.92,.28,9.83,.15,14.75-.11,5.58-.29,11.38-.38,16.06,3.03-3.07,2.15-6.53,3.23-10.3,3.17h-.25c-.93-.03-.93,1.43,0,1.45h.23c4.2,.45,8.38-.1,12.26-1.87,4.8-2.18,8.33-6.55,13.79-7.16,8.79-1,17.65,3.24,24.83-3.33Z"/>
      <path class="cls-1" d="M144.88,194.95c4.32,5.97,8.71,11.9,13.17,17.77-6.74,2.43-14.92,2.35-21.97,1.96-5.98-10.05-11.85-20.16-17.6-30.34,5.28-1.27,10.56-3.38,15.2-5.26l.02,.03c3.67,5.33,7.41,10.6,11.18,15.84Z"/>
      <path class="cls-1" d="M140.38,4c-3.02,3.59-4.41,8.09-3.33,12.68-3.26-1.84-6.5-3.7-9.73-5.59-3.21-1.87-8.08-4.23-8.48-8.19,3.46-1.44,7.31-2.82,10.59-2.63,3.62,.21,7.44,2.06,10.95,3.73Z"/>
      <path class="cls-1" d="M133.82,20.36c1.13,1,2.71,1.84,1.61,3.76-.21,.35-1.6,1.07-1.85,1.26-1.19,.95-2.23,2.05-3.15,3.27-2.12,2.82-3.36,6.2-3.82,9.68-.33,2.44,.97,6.49-3.28,5.55-1.57-.34-3.53-2.26-4.83-3.19-7.26-5.24-16.76-13.37-17.17-23.06-.04-.85-1.23-.93-1.42-.25-.09,.06-.16,.16-.2,.28-.9,2.3-1.01,4.73-.99,7.17-1.21,.67-2.98,.36-4.29,.23-1.62-.14-3.22-.49-4.79-.94-.39-.12-.68,.09-.8,.36-.16,.31-.12,.71,.19,.95,.71,1.54,1.93,2.35,3.63,2.87,1.76,.54,3.57,.47,5.27,1.24,1.89,.87,3.21,2.42,4.73,3.82,5.21,4.79,11.36,8.45,16.6,13.25-4.01,5.02-7.76,10.3-7.99,16.91-11.11-2.97-23.42-2.56-32.93,4.56-2.08,1.57-3.94,3.38-5.49,5.46-1.5,1.99-2.59,4.66-4.77,6.01-5.97,3.71-15.95-3.34-21.05-6.27l-.23-.07-.28-.02c-.56,.09-.9,.96-.26,1.34,3.3,1.96,6.84,4.01,8.94,7.35,1.77,2.83,1.97,6.52,2.06,9.79,.26,9.25-7.29,12.64-15.47,12.64-6.71,0-16.14-1.91-18.06-9.27-.33-1.26-.59-2.63-.56-3.94,.11-3.61,3.26-5.05,6.43-5.27,4.55-.32,7.86,1.99,10.9,5.07l.13,.2c.5,.79,1.77,.06,1.26-.72l-.06-.09-.16-.26c-4.24-6.66-7.2-14.4-3.63-22.07,3.4-7.28,13.23-13.38,20.37-7.36-.9,2.18-1.72,4.4-2.41,6.65-.06,.17-.05,.32,0,.45-.07,.74,1.15,1.02,1.42,.2,2.15-6.16,6.74-12.4,11.63-16.66,5.59-4.87,12.66-7.12,19.87-8.21,.43-.05,.58-.42,.49-.75v-.02c.06-.32-.09-.65-.52-.72-4.97-.83-9.87-.4-14.57,1.39-2.24-2.77-4.53-5.65-5.83-9-1.22-3.2-1.16-6.54-.81-9.9,.71-6.8,3.02-13.42,8.03-18.04h.03c7.56-3.56,16.26-3.89,24.89-3.12,7.83,1.97,15.29,5.07,22.19,9.31,3.9,2.4,7.57,5.13,10.99,8.18Z"/>
      <path class="cls-1" d="M62.14,30.74c1.35,5.55,3.17,10.91,7.64,14.69-3.54,2.67-6.49,5.93-8.79,9.72-1.17-.76-2.5-1.34-3.89-1.74-4.47-1.33-9.68-.86-13.29,1.85-3.31-3.99-7.18-9.57-6.06-14.88,.97-4.7,3.86-8.82,7.41-11.95,.7-.61-.34-1.64-1.03-1.01l-.08,.03c-3.51,2.12-5.88,5.25-8.16,8.61-3.46,5.08-7.15,8.5-12.33,11.69-.21,.09-.39,.18-.58,.27-.48,.21-.47,.69-.19,1.01,.17,.32,.56,.54,.99,.29,.18-.11,.37-.21,.55-.33,3.61-1.63,7.94-3.4,10.99,.13,1.98,2.32,3.29,5.65,4.33,8.53-3.6,3.77-6,8.34-7.03,13.43-3.21-1.11-6.46-1.11-9.85-.52-2.29,.42-5.04,1.79-7.13,.67-1.98-1.06-3.31-4.15-4.5-6.03-.51-.77-1.75-.07-1.28,.71,0,.13,.03,.28,.11,.42,2.29,3.66,1.5,6.47,1.18,10.45-.16,2.12,.41,3.91,1.25,5.71,.23,.49,.49,1,.76,1.51,.43,.83,1.7,.1,1.26-.73-.15-.29-.29-.56-.42-.84,.03-.12,.04-.26-.02-.42-1.84-5.45,6.72-7.05,9.87-7.22,2.6-.15,5.2,.16,7.77,.46,.36,3.24,1.99,6.51,3.92,9.45-3.47-1.76-7.94-1.79-11.42-.11-5.53,2.68-4.88,9.93-2.35,14.55,1.41,2.58,3.55,4.8,6.15,6.2,1.07,.58,2.23,.9,3.38,1.31,.16,.05,.32,.13,.48,.18,3.27,1.28,4.72,4.36,5.8,7.49,2.2,6.33,2.87,13.46,8.49,17.75-.48,.4-.91,.85-1.41,1.26-.39,.34-.79,.64-1.22,.93-16.41-4.81-33.38-11.94-36.23-30.32,.91-3.6,6.96,1.49,8.02,2.42,1.63,1.38,2.98,2.99,4.35,4.63,1.19,1.44,2.35,2.93,3.77,4.17,1.59,1.39,7.01,3.43,4.3,6.54-.52,.59,.15,1.43,.74,1.22l.06-.02c.09,0,.19-.03,.29-.09,4.01-2.17,4.17-8.15,1.89-11.65-.07-.42-.43-.64-.8-.64-.35,0-.68,.24-.64,.7l.02,.13v.24s0,.04,0,.04c.15,2.47-1.42,4.4-4.11,2.67-1.49-.96-2.51-2.41-3.51-3.83-1.43-2.02-2.66-4.03-4.49-5.71-3.77-3.46-8.47-5.65-11.9-9.47-1.93-5.95-3.62-12.03-4.56-18.19-1.18-7.85,.23-13.87,4.85-19.5,3.91-1.04,7.84,.03,11.69,1.22,2.23,1.02,4.48,1.99,6.44,3.29,.78,.51,1.51-.76,.73-1.27-1.94-1.26-4.17-2.22-6.38-3.21-.07-.08-.18-.14-.31-.19-.1-.03-.18-.05-.29-.08-3.25-1.5-6.34-3.17-8.19-6.24v-.02c-.1-.29-.25-.59-.42-.85-2.72-9.64,13.74-21.6,20.19-26.09,10.29-7.17,22.11-12.2,34.87-9.95,.2,.03,.39,.06,.58,.07,1.41,4.49-3.5,11.67-5.65,15.3-2.49,4.21-5.5,7.98-9.37,11-.75,.56,.3,1.6,1.03,1.02l.14-.12,.1-.04c1.14-.57,2.33-.95,3.56-1.17,.15,2.75,.87,5.36,2.17,7.78,.3,.61,.67,1.2,1.06,1.78,.19,.28,.48,.37,.75,.32,.45-.09,.85-.57,.51-1.06-.36-.54-.71-1.09-1-1.65v-.02c-.97-5.65,1.5-11.77,4.43-16.68Z"/>
    </g>
  </g>
  <g id="_레이어_1_copy" data-name="레이어 1 copy">
    <text class="cls-2" transform="translate(171.18 217.34)"><tspan x="0" y="0">BMM</tspan></text>
  </g>
  <g id="_레이어_3_copy_3" data-name="레이어 3 copy 3">
    <text class="cls-3" transform="translate(150.18 248.76)"><tspan class="cls-7" x="0" y="0">B</tspan><tspan x="19.58" y="0">rain/</tspan><tspan class="cls-7" x="85.25" y="0">B</tspan><tspan class="cls-5" x="104.83" y="0">i</tspan><tspan x="113.38" y="0">o </tspan><tspan class="cls-8" x="136.61" y="0">M</tspan><tspan class="cls-4" x="164" y="0">ed</tspan><tspan class="cls-5" x="195.26" y="0">i</tspan><tspan x="203.81" y="0">cal M</tspan><tspan class="cls-5" x="274.94" y="0">i</tspan><tspan x="283.48" y="0">c</tspan><tspan class="cls-6" x="297.37" y="0">r</tspan><tspan class="cls-4" x="309.6" y="0">o</tspan><tspan class="cls-5" x="325.79" y="0">s</tspan><tspan class="cls-9" x="338.49" y="0">y</tspan><tspan x="354.84" y="0">stems Lab</tspan></text>
  </g>
</svg>