<?xml version="1.0" encoding="UTF-8"?>
<svg id="Layer_1" data-name="Layer 1" xmlns="http://www.w3.org/2000/svg" xmlns:xlink="http://www.w3.org/1999/xlink" viewBox="0 0 404.18 115.33">
  <defs>
    <style>
      .cls-1 {
        fill: #fff;
      }

      .cls-2 {
        clip-path: url(#clippath);
      }
    </style>
    <clipPath id="clippath">
      <path class="cls-1" d="M0,101.09c66.02,9.38,133.49,14.24,202.09,14.24s136.08-4.86,202.09-14.24c-66.02-9.38-133.48-14.24-202.09-14.24S66.02,91.71,0,101.09"/>
    </clipPath>
  </defs>
  <g>
    <rect class="cls-1" x="192.63" width="18.92" height="71.19"/>
    <polygon class="cls-1" points="293.76 0 293.76 14.83 317.57 14.83 317.57 71.19 336.48 71.19 336.48 14.83 360.29 14.83 360.29 0 293.76 0"/>
    <path class="cls-1" d="M267.41,28.18h-15.82c-4.2,0-7.61-1.73-7.61-6.68s3.41-6.68,7.61-6.68h34V0h-36.25c-13.53,0-24.5,7.81-24.5,21.5s10.97,21.5,24.5,21.5h16.27c4.2,0,7.6,1.74,7.6,6.68s-3.4,6.67-7.6,6.67h-38.15v14.83h39.94c13.53,0,24.5-7.79,24.5-21.49s-10.97-21.52-24.5-21.52"/>
    <polygon class="cls-1" points="135.03 0 108.27 64.06 82.76 35.59 114.66 0 93.05 0 62.82 33.79 62.82 0 43.9 0 43.9 71.19 62.82 71.19 62.82 37.39 93.05 71.19 124.52 71.19 146.19 17.5 161.92 56.98 136.91 56.98 142.85 71.19 187.09 71.19 157.35 0 135.03 0"/>
  </g>
  <g>
    <path class="cls-1" d="M0,101.09c66.02,9.38,133.49,14.24,202.09,14.24s136.08-4.86,202.09-14.24c-66.02-9.38-133.48-14.24-202.09-14.24S66.02,91.71,0,101.09"/>
    <g class="cls-2">
      <rect class="cls-1" y="86.85" width="404.18" height="28.48"/>
    </g>
  </g>
</svg>